<svg width="318" height="106" viewBox="0 0 318 106" fill="none" xmlns="http://www.w3.org/2000/svg">
<path d="M1 105H1.15149H1.30297H1.45446H1.60594H1.75743L1.90892 104.795L2.0604 103.669L2.21189 102.748L2.36337 102.571L2.51486 100.532L2.66635 100.73L2.81783 96.0289L2.96932 98.3796L3.12081 97.183L3.27229 97.0202L3.42378 93.0054L3.57526 91.9575L3.72675 90.9379L3.87824 90.1307L4.02972 89.2173L4.18121 83.7369L4.33269 89.1819L4.48418 91.4265L4.63567 91.0441L4.78715 90.1166L4.93864 77.6476L5.09012 82.8802L5.24161 91.0512L5.3931 90.5343L5.54458 90.0741L5.69607 89.7271L5.84755 86.909L5.99904 92.6231L6.15053 92.8143L6.30201 86.6187L6.4535 91.5964L6.60499 92.6231L6.75647 92.6514L6.90796 91.0158L7.05944 92.0566L7.21093 92.3611L7.36242 92.6018L7.5139 91.9292L7.66539 90.945L7.81687 90.3644L7.96836 92.2266L8.11985 92.7222L8.27133 98.4858L8.42282 100.766L8.5743 88.8208L8.72579 87.3126L8.87728 90.0528L9.02876 90.3644L9.18025 98.5779L9.33174 92.2832L9.48322 90.159L9.63471 89.8404L9.78619 90.3077L9.93768 93.8622L10.0892 91.5327L10.2407 90.768L10.3921 92.878L10.5436 93.7064L10.6951 92.439L10.8466 91.3698L10.9981 93.7701L11.1496 92.4886L11.3011 94.1737L11.4525 92.8355L11.604 94.5065L11.7555 90.9804L11.907 89.3589L12.0585 84.6432L12.21 81.4074L12.3615 86.2293L12.5129 89.6351L12.6644 89.0615L12.8159 99.8736L12.9674 100.129L13.1189 100.185L13.2704 100.78L13.4219 101.191L13.5733 100.49L13.7248 100.107L13.8763 100.971L14.0278 101.382L14.1793 101.375L14.3308 100.369L14.4823 98.4929L14.6337 99.8595L14.7852 98.0185L14.9367 99.8736L15.0882 102.458L15.2397 101.594L15.3912 99.5621L15.5427 99.0169L15.6942 95.1438L15.8456 99.9303L15.9971 99.6966L16.1486 98.6274L16.3001 102.288L16.4516 91.2778L16.6031 97.1688L16.7546 102.408L16.906 102.692L17.0575 100.801L17.209 99.7462L17.3605 93.4374L17.512 101.212L17.6635 103.039L17.815 100.886L17.9664 99.902L18.1179 100.787L18.2694 97.799L18.4209 101.658L18.5724 102.224L18.7239 101.913L18.8754 102.692L19.0268 102.132L19.1783 103.69L19.3298 102.373L19.4813 102.026L19.6328 101.608L19.7843 101.212L19.9358 103.393L20.0872 103.414L20.2387 103.534L20.3902 103.379L20.5417 103.067L20.6932 102.154L20.8447 103.464L20.9962 103.591L21.1477 103.06L21.2991 102.904L21.4506 103.159L21.6021 101.184L21.7536 103.109L21.9051 100.426L22.0566 102.451L22.2081 103.796L22.3595 101.792L22.511 101.722L22.6625 103.818L22.814 103.995L22.9655 103.655L23.117 103.563L23.2685 103.704L23.4199 103.98L23.5714 104.072L23.7229 104.009L23.8744 102.911L24.0259 103.095L24.1774 102.147L24.3289 102.231L24.4803 99.6046L24.6318 103.683L24.7833 103.697L24.9348 103.938L25.0863 103.386L25.2378 103.669L25.3893 104.186L25.5407 103.803L25.6922 101.092L25.8437 103.938L25.9952 104.058L26.1467 103.91L26.2982 102.649L26.4497 99.5479L26.6011 103.485L26.7526 103.159L26.9041 102.543L27.0556 101.686L27.2071 103.145L27.3586 101.665L27.5101 102.125L27.6616 102.918L27.813 102.904L27.9645 102.628L28.116 102.515L28.2675 101.708L28.419 101.814L28.5705 102.855L28.722 100.348L28.8734 100.419L29.0249 100.617L29.1764 101.637L29.3279 101.615L29.4794 101.559L29.6309 98.1035L29.7824 101.028L29.9338 101.601L30.0853 102.224L30.2368 101.58L30.3883 99.9303L30.5398 100.461L30.6913 102.748L30.8428 102.6L30.9942 103.343L31.1457 102.826L31.2972 102.699L31.4487 102.132L31.6002 103.23L31.7517 103.166L31.9032 102.72L32.0547 103.032L32.2061 102.196L32.3576 103.265L32.5091 102.621L32.6606 102.989L32.8121 102.501L32.9636 102.515L33.1151 103.017L33.2665 103.584L33.418 102.663L33.5695 103.626L33.721 104.044L33.8725 104.703L34.024 103.98L34.1755 104.172L34.3269 104.384L34.4784 104.101L34.6299 104.568L34.7814 104.632L34.9329 104.292L35.0844 104.462L35.2359 104.334L35.3873 103.924L35.5388 104.377L35.6903 103.336L35.8418 104.504L35.9933 104.688L36.1448 104.221L36.2963 103.917L36.4477 104.002L36.5992 104.391L36.7507 103.655L36.9022 104.504L37.0537 104.03L37.2052 104.136L37.3567 104.257L37.5081 104.157L37.6596 104.306L37.8111 104.157L37.9626 103.818L38.1141 104.426L38.2656 104.306L38.4171 104.618L38.5686 104.632L38.72 104.582L38.8715 104.349L39.023 104.618H39.1745L39.326 104.412L39.4775 104.32L39.629 104.462L39.7804 104.738L39.9319 104.504L40.0834 104.717L40.2349 104.667L40.3864 104.448L40.5379 104.646H40.6894L40.8408 104.738L40.9923 104.504L41.1438 103.917L41.2953 104.257L41.4468 104.164L41.5983 104.03L41.7498 104.101L41.9012 104.561L42.0527 104.632L42.2042 104.313L42.3557 104.398L42.5072 104.327L42.6587 104.526L42.8102 104.476L42.9616 104.327L43.1131 104.469L43.2646 104.023L43.4161 104.257L43.5676 104.129L43.7191 103.81L43.8706 104.405L44.022 104.157L44.1735 104.087L44.325 104.115L44.4765 104.087L44.628 104.179L44.7795 104.398L44.931 104.448L45.0825 104.526L45.2339 104.094L45.3854 104.462L45.5369 104.398L45.6884 104.497L45.8399 104.533H45.9914H46.1429L46.2943 104.278L46.4458 104.32L46.5973 104.625L46.7488 104.526L46.9003 104.603L47.0518 104.632L47.2033 104.483L47.3547 104.264L47.5062 104.363L47.6577 104.54L47.8092 104.221L47.9607 103.98L48.1122 103.959L48.2637 104.249L48.4151 104.426L48.5666 103.846L48.7181 104.002L48.8696 104.228L49.0211 104.072L49.1726 104.108L49.3241 104.405L49.4755 104.349L49.627 104.32L49.7785 103.641L49.93 103.683L50.0815 103.81L50.233 103.832L50.3845 104.072L50.536 104.15L50.6874 103.633L50.8389 104.122L50.9904 104.377L51.1419 103.393L51.2934 104.228L51.4449 103.612L51.5964 101.792L51.7478 103.839L51.8993 102.932L52.0508 103.796L52.2023 103.272L52.3538 97.445L52.5053 102.076L52.6568 103.966L52.8082 103.414L52.9597 104.186L53.1112 104.54L53.2627 104.221L53.4142 104.306L53.5657 103.895L53.7172 104.271L53.8686 104.426L54.0201 104.667L54.1716 104.766L54.3231 104.54L54.4746 104.547L54.6261 104.589L54.7776 104.434L54.9291 104.589L55.0805 104.653L55.232 104.341L55.3835 104.391L55.535 104.504L55.6865 104.582L55.838 104.32L55.9895 104.051L56.1409 103.478L56.2924 104.533L56.4439 104.391L56.5954 104.455H56.7469L56.8984 104.15L57.0499 104.264L57.2013 104.221L57.3528 104.724L57.5043 104.547L57.6558 104.738L57.8073 104.674L57.9588 104.186L58.1103 103.371L58.2617 104.497L58.4132 103.102L58.5647 104.83L58.7162 104.759L58.8677 104.795L59.0192 104.788L59.1707 104.887L59.3221 104.71L59.4736 104.83L59.6251 104.809L59.7766 104.129L59.9281 104.519L60.0796 104.341L60.2311 104.143L60.3825 104.752L60.534 101.134L60.6855 99.3638L60.837 104.745L60.9885 99.378L61.14 98.3301L61.2915 104.257L61.4429 104.809L61.5944 104.908L61.7459 104.058L61.8974 102.479L62.0489 104.908L62.2004 104.703L62.3519 104.674L62.5034 104.88L62.6548 104.823L62.8063 104.83L62.9578 104.667L63.1093 104.603L63.2608 104.823L63.4123 104.66L63.5638 104.894L63.7152 104.929L63.8667 104.873L64.0182 104.865L64.1697 104.582L64.3212 104.603L64.4727 104.717L64.6242 104.334L64.7756 104.752L64.9271 104.561L65.0786 104.788L65.2301 104.419L65.3816 104.915L65.5331 104.865L65.6846 104.887L65.836 104.908L65.9875 104.915L66.139 104.936L66.2905 104.901L66.442 104.816H66.5935L66.745 104.915L66.8964 104.929L67.0479 104.936L67.1994 104.901L67.3509 104.809L67.5024 104.788L67.6539 104.88L67.8054 104.858L67.9569 104.915L68.1083 104.901L68.2598 104.738L68.4113 104.667L68.5628 104.157L68.7143 104.858L68.8658 104.788L69.0173 104.823L69.1687 104.49L69.3202 104.915L69.4717 104.922L69.6232 104.759L69.7747 104.731L69.9262 104.802L70.0777 104.667L70.2291 104.936L70.3806 104.823L70.5321 104.837L70.6836 104.724L70.8351 104.469L70.9866 104.816L71.1381 104.844L71.2895 104.83L71.441 103.754L71.5925 104.66L71.744 104.589L71.8955 104.809L72.047 104.745L72.1985 104.66L72.35 104.71L72.5014 104.696L72.6529 104.773H72.8044L72.9559 104.731L73.1074 104.837L73.2589 104.625L73.4104 104.703L73.5618 104.66L73.7133 104.858L73.8648 104.837L74.0163 104.759L74.1678 104.625L74.3193 104.766L74.4708 104.752L74.6222 104.88L74.7737 104.639L74.9252 104.759L75.0767 104.681L75.2282 104.568L75.3797 104.667L75.5312 104.766L75.6826 104.83L75.8341 104.816L75.9856 104.865L76.1371 104.858L76.2886 104.873L76.4401 104.851L76.5916 104.745L76.743 104.901L76.8945 104.865L77.046 104.816L77.1975 104.596L77.349 104.759L77.5005 104.837L77.652 104.894L77.8034 104.752L77.9549 104.95L78.1064 104.752L78.2579 104.809L78.4094 104.554L78.5609 104.823L78.7124 104.943L78.8639 104.908L79.0153 104.816L79.1668 104.809L79.3183 104.773L79.4698 104.738L79.6213 104.922L79.7728 104.851L79.9243 104.837L80.0757 104.88L80.2272 104.865L80.3787 104.816L80.5302 104.915L80.6817 104.809L80.8332 104.858L80.9847 104.901L81.1361 104.88L81.2876 104.773L81.4391 104.653L81.5906 104.696L81.7421 104.788L81.8936 104.915L82.0451 104.554L82.1965 104.674L82.348 104.717L82.4995 104.611L82.651 104.766L82.8025 104.858L82.954 104.816L83.1055 104.589L83.2569 104.773L83.4084 104.674L83.5599 104.639L83.7114 101.127L83.8629 102.614L84.0144 102.012L84.1659 61.5959L84.3174 1L84.4688 103.202L84.6203 103.959L84.7718 104.207L84.9233 104.766L85.0748 104.809L85.2263 104.667L85.3778 104.66L85.5292 104.759L85.6807 104.561L85.8322 60.9374L85.9837 91.6247L86.1352 85.6133L86.2867 47.5975L86.4382 104.696L86.5896 102.493L86.7411 102.522L86.8926 104.823L87.0441 104.802L87.1956 104.816L87.3471 104.646L87.4986 104.618L87.65 104.809L87.8015 104.71L87.953 104.561L88.1045 104.837L88.256 104.901L88.4075 104.823L88.559 104.738L88.7104 104.788L88.8619 104.887L89.0134 104.837L89.1649 104.441L89.3164 104.412L89.4679 103.244L89.6194 104.83L89.7709 104.264L89.9223 104.349L90.0738 104.837H90.2253L90.3768 104.922L90.5283 104.83L90.6798 104.696L90.8313 104.526L90.9827 104.943L91.1342 104.802L91.2857 104.823L91.4372 104.285L91.5887 104.773L91.7402 104.802L91.8917 104.681L92.0431 104.894L92.1946 104.434L92.3461 104.788L92.4976 103.952L92.6491 104.341L92.8006 104.009L92.9521 104.611L93.1035 104.788L93.255 103.825L93.4065 104.788L93.558 104.752L93.7095 104.688L93.861 102.557L94.0125 104.823L94.164 104.873L94.3154 104.703L94.4669 104.653L94.6184 104.66L94.7699 104.901L94.9214 104.865L95.0729 104.773L95.2243 104.823L95.3758 104.717L95.5273 104.611L95.6788 104.83L95.8303 104.795L95.9818 104.533L96.1333 104.341L96.2848 104.773L96.4362 104.88L96.5877 104.681L96.7392 104.816L96.8907 104.837H97.0422L97.1937 104.554L97.3452 104.78L97.4966 104.724L97.6481 104.858L97.7996 104.696L97.9511 104.596L98.1026 104.88L98.2541 104.851L98.4056 104.936L98.557 104.731L98.7085 104.766L98.86 104.908L99.0115 104.773L99.163 104.837L99.3145 104.724L99.466 104.688L99.6174 104.95L99.7689 104.894L99.9204 104.844L100.072 104.688L100.223 104.929L100.375 104.533L100.526 104.674L100.678 104.646L100.829 104.136L100.981 104.66L101.132 104.596L101.284 104.703L101.435 104.731L101.587 104.922L101.738 104.738L101.89 104.851L102.041 104.922L102.193 104.66L102.344 104.837L102.496 104.936L102.647 104.894L102.799 104.752L102.95 104.908L103.102 104.95L103.253 104.858L103.405 104.611L103.556 104.887L103.708 104.901L103.859 104.724L104.011 104.731L104.162 104.582L104.314 104.929L104.465 104.759L104.616 104.752L104.768 104.795L104.919 104.851L105.071 104.901L105.222 104.724L105.374 104.887L105.525 104.703L105.677 104.731L105.828 104.618L105.98 104.639L106.131 104.873L106.283 104.526L106.434 104.887L106.586 104.469L106.737 104.341L106.889 104.703L107.04 104.639L107.192 104.688L107.343 104.766L107.495 104.667L107.646 104.377L107.798 104.738L107.949 104.681L108.101 104.88L108.252 104.504L108.404 104.865L108.555 104.908L108.707 103.818L108.858 104.752L109.01 104.788L109.161 104.377L109.313 104.384L109.464 104.611H109.616L109.767 104.858L109.918 104.816L110.07 104.653L110.221 104.837L110.373 104.688L110.524 104.929L110.676 104.922L110.827 103.718L110.979 104.837L111.13 104.696L111.282 99.5621L111.433 97.7494L111.585 101.835L111.736 104.837L111.888 100.398L112.039 104.773L112.191 104.625L112.342 104.908L112.494 104.858L112.645 104.958L112.797 104.986L112.948 104.972H113.1L113.251 104.873L113.403 105L113.554 104.993L113.706 105H113.857L114.009 104.993L114.16 105L114.312 104.986L114.463 105L114.615 104.979L114.766 105L114.918 104.993H115.069H115.221L115.372 105H115.523H115.675H115.826H115.978H116.129H116.281L116.432 104.993L116.584 105H116.735H116.887H117.038L117.19 104.958L117.341 105H117.493H117.644H117.796H117.947H118.099H118.25H118.402H118.553H118.705H118.856H119.008H119.159L119.311 104.993L119.462 105H119.614H119.765H119.917H120.068H120.22H120.371H120.523H120.674L120.826 104.979L120.977 105L121.128 104.993L121.28 105H121.431H121.583H121.734H121.886H122.037H122.189H122.34H122.492H122.643H122.795H122.946H123.098H123.249H123.401L123.552 104.972L123.704 105L123.855 104.993L124.007 105H124.158H124.31L124.461 104.965L124.613 105H124.764H124.916H125.067H125.219H125.37L125.522 104.95L125.673 105H125.825H125.976L126.128 104.95L126.279 104.83L126.43 105H126.582L126.733 104.986L126.885 105H127.036H127.188H127.339H127.491H127.642H127.794H127.945H128.097H128.248H128.4H128.551H128.703H128.854H129.006H129.157H129.309H129.46H129.612H129.763H129.915H130.066H130.218L130.369 104.993L130.521 105H130.672H130.824H130.975H131.127H131.278H131.43H131.581H131.732H131.884H132.035H132.187H132.338H132.49H132.641H132.793H132.944H133.096H133.247H133.399H133.55H133.702H133.853H134.005H134.156H134.308H134.459H134.611H134.762H134.914H135.065H135.217H135.368H135.52H135.671H135.823H135.974H136.126H136.277H136.429H136.58H136.732H136.883H137.035H137.186H137.337H137.489H137.64H137.792H137.943H138.095H138.246H138.398H138.549H138.701H138.852H139.004H139.155H139.307H139.458H139.61H139.761H139.913H140.064H140.216H140.367H140.519H140.67H140.822H140.973H141.125H141.276H141.428H141.579H141.731H141.882H142.034H142.185H142.337H142.488H142.639H142.791H142.942H143.094H143.245H143.397H143.548H143.7H143.851H144.003H144.154H144.306H144.457H144.609H144.76H144.912H145.063H145.215H145.366H145.518H145.669H145.821H145.972H146.124H146.275H146.427H146.578H146.73H146.881H147.033H147.184H147.336H147.487H147.639H147.79H147.942H148.093H148.244H148.396L148.547 104.993L148.699 105H148.85H149.002H149.153H149.305H149.456H149.608H149.759H149.911H150.062H150.214H150.365H150.517H150.668H150.82H150.971H151.123H151.274H151.426H151.577H151.729H151.88H152.032H152.183H152.335H152.486H152.638H152.789H152.941H153.092H153.244H153.395H153.546H153.698H153.849H154.001H154.152H154.304H154.455H154.607H154.758H154.91H155.061H155.213H155.364H155.516H155.667H155.819H155.97H156.122H156.273H156.425H156.576H156.728H156.879H157.031H157.182H157.334H157.485H157.637H157.788H157.94H158.091H158.243H158.394H158.546H158.697H158.849H159H159.151H159.303H159.454H159.606H159.757H159.909H160.06H160.212H160.363H160.515H160.666H160.818H160.969H161.121H161.272H161.424H161.575H161.727H161.878H162.03H162.181H162.333H162.484H162.636H162.787H162.939H163.09H163.242H163.393H163.545H163.696H163.848H163.999H164.151H164.302H164.453H164.605H164.756H164.908H165.059H165.211H165.362H165.514H165.665H165.817H165.968H166.12H166.271H166.423H166.574H166.726H166.877H167.029H167.18H167.332H167.483H167.635H167.786H167.938H168.089H168.241H168.392H168.544H168.695H168.847H168.998H169.15H169.301H169.453H169.604H169.756H169.907H170.058H170.21H170.361H170.513H170.664H170.816H170.967H171.119H171.27H171.422H171.573H171.725H171.876H172.028H172.179H172.331H172.482H172.634H172.785H172.937H173.088H173.24H173.391H173.543H173.694H173.846H173.997H174.149H174.3H174.452H174.603H174.755H174.906H175.058H175.209H175.36H175.512H175.663H175.815H175.966H176.118H176.269H176.421H176.572H176.724H176.875H177.027H177.178H177.33H177.481H177.633H177.784H177.936H178.087H178.239H178.39H178.542H178.693H178.845H178.996H179.148H179.299H179.451H179.602H179.754L179.905 104.993L180.057 105H180.208H180.36H180.511H180.663H180.814H180.965H181.117H181.268H181.42H181.571H181.723H181.874H182.026H182.177H182.329H182.48H182.632H182.783H182.935H183.086H183.238H183.389H183.541H183.692H183.844H183.995H184.147H184.298H184.45H184.601H184.753H184.904H185.056H185.207H185.359H185.51H185.662H185.813H185.965H186.116H186.267H186.419H186.57H186.722H186.873H187.025H187.176H187.328H187.479H187.631H187.782H187.934H188.085H188.237H188.388H188.54H188.691H188.843H188.994H189.146H189.297H189.449H189.6H189.752H189.903H190.055H190.206H190.358H190.509H190.661H190.812H190.964H191.115H191.267H191.418H191.57H191.721H191.872H192.024H192.175H192.327H192.478H192.63H192.781H192.933H193.084H193.236H193.387H193.539H193.69H193.842H193.993H194.145H194.296H194.448H194.599H194.751H194.902H195.054H195.205H195.357H195.508H195.66H195.811H195.963H196.114H196.266H196.417H196.569H196.72H196.872H197.023H197.174H197.326H197.477H197.629H197.78H197.932H198.083H198.235H198.386H198.538H198.689H198.841H198.992H199.144H199.295H199.447H199.598H199.75H199.901H200.053H200.204H200.356H200.507H200.659H200.81H200.962H201.113H201.265H201.416H201.568H201.719H201.871H202.022H202.174H202.325H202.476H202.628H202.779H202.931H203.082H203.234H203.385H203.537H203.688H203.84H203.991H204.143H204.294H204.446H204.597H204.749H204.9H205.052H205.203H205.355H205.506H205.658H205.809H205.961H206.112H206.264H206.415H206.567H206.718H206.87H207.021H207.173H207.324H207.476H207.627H207.779H207.93H208.081H208.233H208.384H208.536H208.687H208.839H208.99H209.142H209.293H209.445H209.596H209.748H209.899H210.051H210.202H210.354H210.505H210.657H210.808H210.96H211.111H211.263H211.414H211.566H211.717H211.869H212.02H212.172H212.323H212.475H212.626H212.778H212.929H213.081H213.232H213.384H213.535H213.686H213.838H213.989H214.141H214.292H214.444H214.595H214.747H214.898H215.05H215.201H215.353H215.504H215.656H215.807H215.959H216.11H216.262H216.413H216.565H216.716H216.868H217.019H217.171H217.322H217.474H217.625H217.777H217.928H218.08H218.231H218.383H218.534H218.686H218.837H218.988H219.14H219.291H219.443H219.594H219.746H219.897H220.049H220.2H220.352H220.503H220.655H220.806H220.958H221.109H221.261H221.412H221.564H221.715H221.867H222.018H222.17H222.321H222.473H222.624H222.776H222.927H223.079H223.23H223.382H223.533H223.685H223.836H223.988H224.139H224.291H224.442H224.593H224.745H224.896H225.048H225.199H225.351H225.502H225.654H225.805H225.957H226.108H226.26H226.411H226.563H226.714H226.866H227.017H227.169H227.32H227.472H227.623H227.775H227.926H228.078H228.229H228.381H228.532H228.684H228.835H228.987H229.138H229.29H229.441H229.593H229.744H229.895H230.047H230.198H230.35H230.501H230.653H230.804H230.956H231.107H231.259H231.41H231.562H231.713H231.865H232.016H232.168H232.319H232.471H232.622H232.774H232.925H233.077H233.228H233.38H233.531H233.683H233.834H233.986H234.137H234.289H234.44H234.592H234.743H234.895H235.046H235.197H235.349H235.5H235.652H235.803H235.955H236.106H236.258H236.409H236.561H236.712H236.864H237.015H237.167H237.318H237.47H237.621H237.773H237.924H238.076H238.227H238.379H238.53H238.682H238.833H238.985H239.136H239.288H239.439H239.591H239.742H239.894H240.045H240.197H240.348H240.5H240.651H240.802H240.954H241.105H241.257H241.408H241.56H241.711H241.863H242.014H242.166H242.317H242.469H242.62H242.772H242.923H243.075H243.226H243.378H243.529H243.681H243.832H243.984H244.135H244.287H244.438H244.59H244.741H244.893H245.044H245.196H245.347H245.499H245.65H245.802H245.953H246.104H246.256H246.407H246.559H246.71H246.862H247.013H247.165H247.316H247.468H247.619H247.771H247.922H248.074H248.225H248.377H248.528H248.68H248.831H248.983H249.134H249.286H249.437H249.589H249.74H249.892H250.043H250.195H250.346H250.498H250.649H250.801H250.952H251.104H251.255H251.407H251.558H251.709H251.861H252.012H252.164H252.315H252.467H252.618H252.77H252.921H253.073H253.224H253.376H253.527H253.679H253.83H253.982H254.133H254.285H254.436H254.588H254.739H254.891H255.042H255.194H255.345H255.497H255.648H255.8H255.951H256.103H256.254H256.406H256.557H256.709H256.86H257.011H257.163H257.314H257.466H257.617H257.769H257.92H258.072H258.223H258.375H258.526H258.678H258.829H258.981H259.132H259.284H259.435H259.587H259.738H259.89H260.041H260.193H260.344H260.496H260.647H260.799H260.95H261.102H261.253H261.405H261.556H261.708H261.859H262.011H262.162H262.314H262.465H262.616H262.768H262.919H263.071H263.222H263.374H263.525H263.677H263.828H263.98H264.131H264.283H264.434H264.586H264.737H264.889H265.04H265.192H265.343H265.495H265.646H265.798H265.949H266.101H266.252H266.404H266.555H266.707H266.858H267.01H267.161H267.313H267.464H267.616H267.767H267.918H268.07H268.221H268.373H268.524H268.676H268.827H268.979H269.13H269.282H269.433H269.585H269.736H269.888H270.039H270.191H270.342H270.494H270.645H270.797H270.948H271.1H271.251H271.403H271.554H271.706H271.857H272.009H272.16H272.312H272.463H272.615H272.766H272.918H273.069H273.221H273.372H273.523H273.675H273.826H273.978H274.129H274.281H274.432H274.584H274.735H274.887H275.038H275.19H275.341H275.493H275.644H275.796H275.947H276.099H276.25H276.402H276.553H276.705H276.856H277.008H277.159H277.311H277.462H277.614H277.765H277.917H278.068H278.22H278.371H278.523H278.674H278.825H278.977H279.128H279.28H279.431H279.583H279.734H279.886H280.037H280.189H280.34H280.492H280.643H280.795H280.946H281.098H281.249H281.401H281.552H281.704H281.855H282.007H282.158H282.31H282.461H282.613H282.764H282.916H283.067H283.219H283.37H283.522H283.673H283.825H283.976H284.128H284.279H284.43H284.582H284.733H284.885H285.036H285.188H285.339H285.491H285.642H285.794H285.945H286.097H286.248H286.4H286.551H286.703H286.854H287.006H287.157H287.309H287.46H287.612H287.763H287.915H288.066H288.218H288.369H288.521H288.672H288.824H288.975H289.127H289.278H289.43H289.581H289.732H289.884H290.035H290.187H290.338H290.49H290.641H290.793H290.944H291.096H291.247H291.399H291.55H291.702H291.853H292.005H292.156H292.308H292.459H292.611H292.762H292.914H293.065H293.217H293.368H293.52H293.671H293.823H293.974H294.126H294.277H294.429H294.58H294.732H294.883H295.034H295.186H295.337H295.489H295.64H295.792H295.943H296.095H296.246H296.398H296.549H296.701H296.852H297.004H297.155H297.307H297.458H297.61H297.761H297.913H298.064H298.216H298.367H298.519H298.67H298.822H298.973H299.125H299.276H299.428H299.579H299.731H299.882H300.034H300.185H300.337H300.488H300.639H300.791H300.942H301.094H301.245H301.397H301.548H301.7H301.851H302.003H302.154H302.306H302.457H302.609H302.76H302.912H303.063H303.215H303.366H303.518H303.669H303.821H303.972H304.124H304.275H304.427H304.578H304.73H304.881H305.033H305.184H305.336H305.487H305.639H305.79H305.942H306.093H306.244H306.396H306.547H306.699H306.85H307.002H307.153H307.305H307.456H307.608H307.759H307.911H308.062H308.214H308.365H308.517H308.668H308.82H308.971H309.123H309.274H309.426H309.577H309.729H309.88H310.032H310.183H310.335H310.486H310.638H310.789H310.941H311.092H311.244H311.395H311.546H311.698H311.849H312.001H312.152H312.304H312.455H312.607H312.758H312.91H313.061H313.213H313.364H313.516H313.667H313.819H313.97H314.122H314.273H314.425H314.576H314.728H314.879H315.031H315.182H315.334H315.485H315.637H315.788H315.94H316.091H316.243H316.394H316.546H316.697H316.849H317" stroke="#CED4DA" stroke-width="0.6" stroke-linecap="round" stroke-linejoin="round"/>
</svg>
